{"asset":{"version":"2.0","generator":"THREE.GLTFExporter"},"scenes":[{"name":"default","nodes":[0]}],"scene":0,"nodes":[{"name":"default","mesh":0}],"bufferViews":[{"buffer":0,"byteOffset":0,"byteLength":6792,"target":34962,"byteStride":12},{"buffer":0,"byteOffset":6792,"byteLength":6792,"target":34962,"byteStride":12},{"buffer":0,"byteOffset":13584,"byteLength":4528,"target":34962,"byteStride":8},{"buffer":0,"byteOffset":18112,"byteLength":4528,"target":34962,"byteStride":8},{"buffer":0,"byteOffset":22640,"byteLength":1512,"target":34963}],"buffers":[{"byteLength":24152,"uri":"data:application/octet-stream;base64,"}],"accessors":[{"bufferView":0,"componentType":5126,"count":566,"max":[5,4,3],"min":[-5,-0.0002590891090221703,-7],"type":"VEC3"},{"bufferView":1,"componentType":5126,"count":566,"max":[1,1,1],"min":[-1,-0.00005000315286451951,-0.0004263340961188078],"type":"VEC3"},{"bufferView":2,"componentType":5126,"count":566,"max":[0.4375,0.0625],"min":[0,0],"type":"VEC2"},{"bufferView":3,"componentType":5126,"count":566,"max":[-1,0],"min":[-1,0],"type":"VEC2"},{"bufferView":4,"componentType":5123,"count":756,"max":[565],"min":[0],"type":"SCALAR"}],"materials":[{"pbrMetallicRoughness":{"metallicFactor":0,"roughnessFactor":1,"baseColorTexture":{"index":0}},"alphaMode":"MASK","alphaCutoff":0.01,"name":"texture_1"}],"textures":[{"sampler":0,"source":0,"name":"texture_1"}],"samplers":[{"magFilter":9728,"minFilter":9728,"wrapS":33071,"wrapT":33071}],"images":[{"mimeType":"image/png","uri":"data:image/png;base64,"}],"meshes":[{"primitives":[{"mode":4,"attributes":{"POSITION":0,"NORMAL":1,"TEXCOORD_0":2,"_UVANIMATION":3},"indices":4,"material":0}]}]}